<svg class="pool" width="538" height="538" viewBox="0 0 538 538" fill="none" xmlns="http://www.w3.org/2000/svg">
<path d="M272.909 24.673C272.909 24.673 598.125 349.889 452.685 469.61C419.893 496.744 362.926 513.333 272.909 513.333C182.892 513.333 126.054 496.744 93.1328 469.61C-52.3072 349.888 272.909 24.673 272.909 24.673Z" fill="#00B4D7"/>
<path d="M337.905 96.619C301.514 53.336 272.91 24.672 272.91 24.672C272.91 24.672 -52.3072 349.888 93.1328 469.61C126.054 496.743 182.892 513.333 272.908 513.333C296.889 513.333 318.456 512.121 337.914 509.881C284.365 503.712 247.275 489.516 223.125 469.61C120.769 385.355 251.456 199.446 337.905 96.619Z" fill="#00A8D4"/>
<rect width="538" height="538" fill="white"/>
<path d="M272.905 38.535C302.603 69.499 420.745 197.111 464.26 311.05L482.323 304.151C460.807 247.813 420.153 182.482 361.489 109.974C317.952 56.162 280.12 18.212 279.744 17.835L272.909 11L266.073 17.836C265.476 18.433 205.734 78.411 149.376 155.266L164.969 166.7C209.325 106.212 255.792 56.358 272.905 38.535Z" fill="black"/>
<path d="M487.851 319.729L469.472 325.736C479.075 355.117 482.4 381.184 479.354 403.209C476.001 427.45 465.267 446.729 446.52 462.162C413.239 489.701 354.826 503.665 272.908 503.665C191.12 503.665 132.703 489.698 99.2769 462.147C82.1189 448.022 71.7149 430.708 67.4689 409.214C63.5829 389.545 65.1089 366.382 72.0049 340.371C83.7239 296.168 110.699 243.735 152.183 184.531L136.349 173.436C93.5559 234.509 65.6189 289.008 53.3159 335.417C36.8629 397.479 48.1929 445.139 86.9869 477.072C123.963 507.549 186.517 523.001 272.911 523.001C359.449 523.001 422.008 507.544 458.83 477.075C500.893 442.447 510.658 389.509 487.851 319.729Z" fill="black"/>
<path d="M220.866 146.636C215.154 152.693 81.1798 296.107 97.5158 393.525C102.217 421.563 118.617 443.122 146.258 457.6L155.23 440.473C132.928 428.791 120.288 412.393 116.587 390.339C110.574 354.514 128.855 303.577 169.453 243.036C200.819 196.262 234.598 160.258 234.936 159.9L220.866 146.636Z" fill="white"/>
<path d="M164.671 463.507C166.895 464.989 186.838 477.991 202.183 477.991V458.656C195.376 458.656 182.417 452.083 175.389 447.416L170.033 455.465L164.671 463.507Z" fill="white"/>
<path d="M284.215 340.064C297.93 338.128 298.568 325.226 292 321.5C286.031 318.114 284.215 334 268 334C251.785 334 251.929 318.251 246 321.5C239.378 325.128 239.134 337.628 252.067 340.064C265 342.5 270.5 342 284.215 340.064Z" fill="black"/>
<path d="M306.696 295H293.883C288.544 295 284.216 299.328 284.216 304.667C284.216 310.007 288.544 314.335 293.883 314.335H306.696C312.036 314.335 316.364 310.007 316.364 304.667C316.364 299.328 312.036 295 306.696 295Z" fill="black"/>
<path d="M242.399 295H229.586C224.247 295 219.919 299.328 219.919 304.667C219.919 310.007 224.247 314.335 229.586 314.335H242.399C247.739 314.335 252.067 310.007 252.067 304.667C252.067 299.328 247.739 295 242.399 295Z" fill="black"/>
<path d="M228.528 438V408.909H240.006C242.212 408.909 244.092 409.33 245.645 410.173C247.198 411.007 248.382 412.167 249.196 413.653C250.02 415.131 250.432 416.835 250.432 418.767C250.432 420.699 250.015 422.403 249.182 423.881C248.348 425.358 247.141 426.509 245.56 427.332C243.988 428.156 242.084 428.568 239.849 428.568H232.534V423.639H238.855C240.039 423.639 241.014 423.436 241.781 423.028C242.558 422.612 243.135 422.039 243.514 421.31C243.902 420.571 244.097 419.723 244.097 418.767C244.097 417.801 243.902 416.958 243.514 416.239C243.135 415.509 242.558 414.946 241.781 414.548C241.005 414.141 240.02 413.938 238.827 413.938H234.679V438H228.528ZM263.82 438.426C261.613 438.426 259.705 437.957 258.095 437.02C256.495 436.073 255.259 434.757 254.388 433.071C253.517 431.376 253.081 429.411 253.081 427.176C253.081 424.922 253.517 422.953 254.388 421.267C255.259 419.572 256.495 418.256 258.095 417.318C259.705 416.371 261.613 415.898 263.82 415.898C266.026 415.898 267.929 416.371 269.53 417.318C271.14 418.256 272.38 419.572 273.251 421.267C274.123 422.953 274.558 424.922 274.558 427.176C274.558 429.411 274.123 431.376 273.251 433.071C272.38 434.757 271.14 436.073 269.53 437.02C267.929 437.957 266.026 438.426 263.82 438.426ZM263.848 433.739C264.852 433.739 265.69 433.455 266.362 432.886C267.035 432.309 267.541 431.523 267.882 430.528C268.232 429.534 268.408 428.402 268.408 427.134C268.408 425.865 268.232 424.733 267.882 423.739C267.541 422.744 267.035 421.958 266.362 421.381C265.69 420.803 264.852 420.514 263.848 420.514C262.835 420.514 261.982 420.803 261.291 421.381C260.609 421.958 260.093 422.744 259.743 423.739C259.402 424.733 259.232 425.865 259.232 427.134C259.232 428.402 259.402 429.534 259.743 430.528C260.093 431.523 260.609 432.309 261.291 432.886C261.982 433.455 262.835 433.739 263.848 433.739ZM288.351 438.426C286.144 438.426 284.236 437.957 282.626 437.02C281.026 436.073 279.79 434.757 278.919 433.071C278.048 431.376 277.612 429.411 277.612 427.176C277.612 424.922 278.048 422.953 278.919 421.267C279.79 419.572 281.026 418.256 282.626 417.318C284.236 416.371 286.144 415.898 288.351 415.898C290.557 415.898 292.461 416.371 294.061 417.318C295.671 418.256 296.911 419.572 297.783 421.267C298.654 422.953 299.089 424.922 299.089 427.176C299.089 429.411 298.654 431.376 297.783 433.071C296.911 434.757 295.671 436.073 294.061 437.02C292.461 437.957 290.557 438.426 288.351 438.426ZM288.379 433.739C289.383 433.739 290.221 433.455 290.893 432.886C291.566 432.309 292.072 431.523 292.413 430.528C292.764 429.534 292.939 428.402 292.939 427.134C292.939 425.865 292.764 424.733 292.413 423.739C292.072 422.744 291.566 421.958 290.893 421.381C290.221 420.803 289.383 420.514 288.379 420.514C287.366 420.514 286.514 420.803 285.822 421.381C285.141 421.958 284.625 422.744 284.274 423.739C283.933 424.733 283.763 425.865 283.763 427.134C283.763 428.402 283.933 429.534 284.274 430.528C284.625 431.523 285.141 432.309 285.822 432.886C286.514 433.455 287.366 433.739 288.379 433.739ZM309.075 408.909V438H303.024V408.909H309.075Z" fill="black"/>
</svg>
